PathFileType   4   (X/Y/Z)
DataRate	CameraRate	NumFrames	NumMarkers	Units	OrigDataRate	OrigDataStartFrame	OrigNumFrames
120.0	120.0	5	37	mm	120.0	52	136
Frame#	Time	midhip	hip_r	hip_l	knee_r	knee_l	ankle_r	ankle_l	midasis	asis_r	asis_l	psis_r	psis_l	epicondLat_r	epicondLat_l	epicondMed_r	epicondMed_l	malleolusLat_r	malleolusLat_l	malleolusMedv_r	malleolusMedv_l	neck	subclavicle_r	subclavicle_l	sternalnotch	xyphoidprocess	thighwand_r	thighwand_l	upperleg1_r	upperleg1_l	upperleg2_r	upperleg2_l	shankwand_r	shankwand_l	lowerleg1_r	lowerleg1_l	toe_r	toe_l
 	 	X1	Y1	Z1	X2	Y2	Z2	X3	Y3	Z3	X4	Y4	Z4	X5	Y5	Z5	X6	Y6	Z6	X7	Y7	Z7	X8	Y8	Z8	X9	Y9	Z9	X10	Y10	Z10	X11	Y11	Z11	X12	Y12	Z12	X13	Y13	Z13	X14	Y14	Z14	X15	Y15	Z15	X16	Y16	Z16	X17	Y17	Z17	X18	Y18	Z18	X19	Y19	Z19	X20	Y20	Z20	X21	Y21	Z21	X22	Y22	Z22	X23	Y23	Z23	X24	Y24	Z24	X25	Y25	Z25	X26	Y26	Z26	X27	Y27	Z27	X28	Y28	Z28	X29	Y29	Z29	X30	Y30	Z30	X31	Y31	Z31	X32	Y32	Z32	X33	Y33	Z33	X34	Y34	Z34	X35	Y35	Z35	X36	Y36	Z36	X37	Y37	Z37

	52	0.65833	1694.593	759.007	-270.214	1682.015	761.485	-189.660	1670.251	764.238	-344.820	1850.128	413.328	-210.779	1587.994	421.666	-325.224	1956.508	68.885	-207.125	1448.650	78.449	-304.763	1805.295	831.976	-275.807	1814.735	829.767	-151.301	1795.855	834.186	-400.312	1568.394	907.174	-219.282	1561.238	909.238	-273.853	1861.363	414.471	-140.176	1576.839	420.306	-395.836	1830.829	401.967	-286.809	1592.153	416.614	-244.066	1950.008	67.279	-169.212	1431.060	83.504	-339.767	1959.787	80.300	-244.207	1450.078	98.275	-263.715	1608.615	1330.922	-260.117	1734.611	1260.790	-225.667	1733.200	1264.956	-308.634	1716.952	1258.142	-278.990	1767.199	1183.800	-282.670	1931.250	609.432	-148.604	1807.162	551.644	-366.598	1883.735	612.523	-163.975	1764.066	578.636	-367.927	1893.802	536.552	-174.114	1727.995	514.210	-359.976	1997.341	234.517	-185.944	1462.494	182.776	-412.445	1952.371	227.387	-196.229	1468.848	196.006	-367.096	2065.158	75.152	-202.409	1539.927	46.713	-316.528
	53	0.66667	1702.497	758.528	-269.557	1690.069	761.083	-188.936	1678.011	763.733	-344.075	1857.114	412.507	-210.163	1594.287	421.261	-325.168	1959.691	67.366	-207.418	1449.827	79.938	-305.094	1813.192	831.505	-275.363	1822.871	829.378	-150.830	1803.514	833.632	-399.896	1576.450	906.756	-218.297	1569.100	908.802	-272.896	1868.770	413.797	-139.632	1582.884	420.152	-395.744	1837.996	401.264	-284.749	1598.589	417.273	-243.531	1953.333	65.778	-169.480	1432.313	85.292	-340.092	1963.024	78.152	-244.413	1451.146	99.764	-263.949	1615.920	1330.451	-258.768	1742.165	1259.787	-225.288	1740.672	1264.008	-308.127	1724.242	1257.497	-278.166	1774.490	1182.750	-282.320	1939.671	609.365	-148.653	1813.962	550.778	-366.942	1892.364	612.670	-163.769	1771.073	578.200	-368.023	1902.143	536.302	-173.449	1734.575	514.028	-359.977	2002.821	232.262	-186.098	1465.233	184.221	-412.634	1957.009	225.013	-196.536	1471.485	197.294	-367.198	2068.506	72.070	-202.731	1540.371	46.929	-316.828
	54	0.67500	1710.510	758.113	-268.810	1698.194	760.794	-188.145	1685.906	763.241	-343.269	1864.062	411.813	-209.407	1600.878	420.817	-325.089	1962.472	65.945	-207.628	1451.095	81.548	-305.386	1821.184	831.112	-274.847	1831.050	829.147	-150.296	1811.318	833.076	-399.397	1584.521	906.429	-217.411	1577.005	908.415	-272.055	1876.091	413.237	-138.940	1589.249	419.959	-395.632	1845.113	401.090	-283.332	1604.385	417.511	-243.244	1956.223	64.362	-169.671	1433.676	87.206	-340.384	1966.050	76.042	-244.489	1452.582	101.059	-264.149	1623.327	1329.783	-257.258	1749.920	1258.751	-224.274	1747.933	1263.237	-307.145	1731.590	1256.904	-277.261	1781.826	1181.863	-281.768	1948.161	609.366	-148.469	1820.989	549.976	-367.194	1900.947	612.815	-163.169	1777.732	577.195	-367.996	1910.564	535.964	-172.881	1740.819	513.431	-359.958	2008.075	230.021	-186.059	1468.165	185.741	-412.806	1961.620	222.524	-196.603	1474.444	198.371	-367.142	2071.485	68.626	-202.961	1540.901	47.171	-317.130
	55	0.68333	1718.632	757.774	-267.952	1706.388	760.637	-187.272	1693.924	762.766	-342.387	1870.959	411.294	-208.529	1607.823	420.329	-325.013	1964.980	64.679	-207.764	1452.472	83.310	-305.644	1829.260	830.814	-274.254	1839.268	829.104	-149.700	1819.252	832.524	-398.809	1592.599	906.205	-216.628	1584.953	908.076	-271.325	1883.291	412.819	-138.117	1595.986	419.728	-395.524	1852.049	401.906	-282.848	1608.383	419.807	-242.466	1958.813	63.091	-169.794	1435.169	89.273	-340.648	1968.074	74.926	-244.595	1455.170	101.982	-264.490	1630.804	1328.963	-255.860	1757.426	1258.290	-222.800	1755.127	1262.658	-305.772	1739.049	1256.391	-276.273	1789.251	1181.376	-280.349	1956.659	609.412	-148.011	1828.273	549.265	-367.369	1909.641	612.998	-162.439	1784.564	576.272	-367.808	1918.818	536.172	-172.417	1746.140	512.831	-359.617	2013.148	227.880	-185.863	1471.321	187.346	-412.968	1966.805	221.130	-195.833	1478.409	199.569	-366.942	2074.217	65.024	-203.109	1541.526	47.430	-317.405
	56	0.69167	1726.851	757.523	-266.982	1714.643	760.625	-186.309	1702.055	762.320	-341.418	1877.810	410.990	-207.558	1615.171	419.788	-324.965	1967.289	63.602	-207.841	1453.985	85.253	-305.876	1837.407	830.629	-273.582	1847.515	829.268	-149.039	1827.300	831.989	-398.125	1600.677	906.094	-215.950	1592.945	907.781	-270.698	1890.356	412.568	-137.185	1603.146	419.453	-395.446	1858.707	402.278	-280.965	1621.051	415.986	-240.534	1961.189	62.000	-169.861	1436.821	91.525	-340.894	1969.923	74.647	-244.698	1457.701	103.495	-264.851	1637.961	1328.507	-254.592	1765.210	1257.722	-221.708	1761.899	1262.477	-304.319	1746.577	1255.998	-275.192	1796.439	1181.129	-279.871	1965.101	609.487	-147.257	1835.838	548.674	-367.477	1918.467	613.132	-161.575	1792.206	575.957	-367.690	1926.889	536.597	-171.202	1755.694	512.309	-359.149	2018.062	225.883	-185.562	1474.735	189.044	-413.129	1972.371	220.884	-194.874	1482.425	200.937	-367.179	2076.767	61.477	-203.198	1542.249	47.698	-317.632
